<mxfile host="app.diagrams.net" modified="2023-06-02T07:20:10.145Z" agent="Mozilla/5.0 (Windows NT 10.0; Win64; x64) AppleWebKit/537.36 (KHTML, like Gecko) Chrome/113.0.0.0 Safari/537.36" etag="MUNafV5Y-1h9jCbTHtPz" version="21.1.9" type="device">
  <diagram name="第 1 页" id="V1W0sLbI2GgZeyCbVdQ1">
    <mxGraphModel dx="1194" dy="682" grid="1" gridSize="10" guides="1" tooltips="1" connect="1" arrows="1" fold="1" page="1" pageScale="1" pageWidth="827" pageHeight="1169" math="0" shadow="0">
      <root>
        <mxCell id="0" />
        <mxCell id="1" parent="0" />
        <mxCell id="WFYV-QFJoavZbaiG5XtV-6" value="Context" style="swimlane;fontStyle=1;align=center;verticalAlign=top;childLayout=stackLayout;horizontal=1;startSize=29;horizontalStack=0;resizeParent=1;resizeParentMax=0;resizeLast=0;collapsible=1;marginBottom=0;" parent="1" vertex="1">
          <mxGeometry x="100" y="189.5" width="170" height="60" as="geometry" />
        </mxCell>
        <mxCell id="WFYV-QFJoavZbaiG5XtV-7" value="+ contextInterface()" style="text;strokeColor=none;fillColor=none;align=left;verticalAlign=top;spacingLeft=4;spacingRight=4;overflow=hidden;rotatable=0;points=[[0,0.5],[1,0.5]];portConstraint=eastwest;fontStyle=0" parent="WFYV-QFJoavZbaiG5XtV-6" vertex="1">
          <mxGeometry y="29" width="170" height="31" as="geometry" />
        </mxCell>
        <mxCell id="WFYV-QFJoavZbaiG5XtV-9" value="ConcreateStrategyA" style="swimlane;fontStyle=1;align=center;verticalAlign=top;childLayout=stackLayout;horizontal=1;startSize=29;horizontalStack=0;resizeParent=1;resizeParentMax=0;resizeLast=0;collapsible=1;marginBottom=0;" parent="1" vertex="1">
          <mxGeometry x="340" y="340" width="170" height="50" as="geometry" />
        </mxCell>
        <mxCell id="WFYV-QFJoavZbaiG5XtV-21" value="" style="endArrow=block;endSize=10;endFill=0;shadow=0;strokeWidth=1;rounded=0;edgeStyle=elbowEdgeStyle;elbow=vertical;dashed=1;dashPattern=8 8;labelBackgroundColor=none;fontColor=default;entryX=0.5;entryY=1;entryDx=0;entryDy=0;" parent="1" source="WFYV-QFJoavZbaiG5XtV-9" target="8bpQcrnYZOklx_H4A8Wu-1" edge="1">
          <mxGeometry width="160" relative="1" as="geometry">
            <mxPoint x="61.5" y="330" as="sourcePoint" />
            <mxPoint x="179" y="244" as="targetPoint" />
          </mxGeometry>
        </mxCell>
        <mxCell id="8bpQcrnYZOklx_H4A8Wu-1" value="&lt;p style=&quot;margin:0px;margin-top:4px;text-align:center;&quot;&gt;&lt;i&gt;&amp;lt;&amp;lt;Interface&amp;gt;&amp;gt;&lt;br&gt;&lt;b&gt;Strategy&lt;/b&gt;&lt;br&gt;&lt;/i&gt;&lt;/p&gt;&lt;hr size=&quot;1&quot;&gt;&lt;p style=&quot;margin:0px;margin-left:4px;&quot;&gt;&lt;/p&gt;&lt;p style=&quot;margin:0px;margin-left:4px;&quot;&gt;&lt;i&gt;+ algorithmInterface()&lt;/i&gt;&lt;/p&gt;" style="verticalAlign=top;align=left;overflow=fill;fontSize=12;fontFamily=Helvetica;html=1;" parent="1" vertex="1">
          <mxGeometry x="434" y="188.5" width="200" height="63" as="geometry" />
        </mxCell>
        <mxCell id="xXnBj1-Nh2qDs8suzw_o-3" value="strategy" style="endArrow=open;html=1;endSize=12;startArrow=diamondThin;startSize=14;startFill=0;edgeStyle=orthogonalEdgeStyle;align=left;verticalAlign=bottom;rounded=0;entryX=0;entryY=0.25;entryDx=0;entryDy=0;exitX=1;exitY=0.25;exitDx=0;exitDy=0;" parent="1" source="WFYV-QFJoavZbaiG5XtV-6" target="8bpQcrnYZOklx_H4A8Wu-1" edge="1">
          <mxGeometry x="-0.8826" y="4" relative="1" as="geometry">
            <mxPoint x="384" y="188.5" as="sourcePoint" />
            <mxPoint x="299" y="149" as="targetPoint" />
            <mxPoint as="offset" />
          </mxGeometry>
        </mxCell>
        <mxCell id="xXnBj1-Nh2qDs8suzw_o-4" value="ConcreateStrategyB" style="swimlane;fontStyle=1;align=center;verticalAlign=top;childLayout=stackLayout;horizontal=1;startSize=29;horizontalStack=0;resizeParent=1;resizeParentMax=0;resizeLast=0;collapsible=1;marginBottom=0;" parent="1" vertex="1">
          <mxGeometry x="540" y="340" width="170" height="50" as="geometry" />
        </mxCell>
        <mxCell id="xXnBj1-Nh2qDs8suzw_o-6" value="" style="endArrow=block;endSize=10;endFill=0;shadow=0;strokeWidth=1;rounded=0;edgeStyle=elbowEdgeStyle;elbow=vertical;dashed=1;dashPattern=8 8;labelBackgroundColor=none;fontColor=default;entryX=0.5;entryY=1;entryDx=0;entryDy=0;" parent="1" source="xXnBj1-Nh2qDs8suzw_o-4" target="8bpQcrnYZOklx_H4A8Wu-1" edge="1">
          <mxGeometry width="160" relative="1" as="geometry">
            <mxPoint x="459" y="360" as="sourcePoint" />
            <mxPoint x="534" y="242" as="targetPoint" />
          </mxGeometry>
        </mxCell>
      </root>
    </mxGraphModel>
  </diagram>
</mxfile>
